# xmcd
#
# Track frame offsets:
#	150
#	12557
#	26122
#	40097
#	52792
#	66526
#	81396
#	86450
#	95615
#	110679
#	116883
#	130658
#
# Disc length: 1928 seconds
#
# Revision: 1
# Processed by: cddbd v1.5.1PL2 Copyright (c) Steve Scherf et al.
# Submitted via: audiograbber 1.83.01
#
DISCID=a307860c
DTITLE=Jimmie Rodgers - Never No Mo' Blues
DYEAR=1956
DGENRE=Country
TTITLE0=01 - Never No Mo' Blues
TTITLE1=02 - Daddy and Home
TTITLE2=03 - Blue Yodel No. 4 ( California Blues)
TTITLE3=04 - Waiting for a Train
TTITLE4=05 - You and My Old Guitar
TTITLE5=06 - Prairie Lullaby
TTITLE6=07 - Blue Yodel No. 6
TTITLE7=08 - Dear Old Sunny South by the Sea
TTITLE8=09 - Jimmie's Mean Momma Bues
TTITLE9=10 - Pistol Packin Papa
TTITLE10=11 - Old Pal Of My Heart
TTITLE11=12 - My Little Lady
EXTD=RCA LPM-1232
EXTT0=
EXTT1=
EXTT2=
EXTT3=
EXTT4=
EXTT5=
EXTT6=
EXTT7=
EXTT8=
EXTT9=
EXTT10=
EXTT11=
PLAYORDER=
